<svg xmlns="http://www.w3.org/2000/svg" xmlns:svg="http://www.w3.org/2000/svg" id="svg104617" width="512" height="512" version="1.1"><defs id="defs104619"><radialGradient id="SVGID_1455_" cx="-571.293" cy="-142.436" r="120.618" gradientUnits="userSpaceOnUse"><stop id="stop88384" offset="0" style="stop-color:#f9f9f9;stop-opacity:1"/><stop id="stop88386" offset=".249" style="stop-color:#f6f6f6;stop-opacity:1"/><stop id="stop88388" offset=".445" style="stop-color:#ececec;stop-opacity:1"/><stop id="stop88390" offset=".624" style="stop-color:#dbdbdb;stop-opacity:1"/><stop id="stop88392" offset=".793" style="stop-color:#c4c4c4;stop-opacity:1"/><stop id="stop88394" offset=".952" style="stop-color:#a6a6a6;stop-opacity:1"/><stop id="stop88396" offset="1" style="stop-color:#9b9b9b;stop-opacity:1"/></radialGradient><linearGradient id="SVGID_1456_" x1="-570.576" x2="-570.576" y1="-71.283" y2="-35.547" gradientUnits="userSpaceOnUse"><stop id="stop88401" offset=".352" style="stop-color:#f9f9f9;stop-opacity:1"/><stop id="stop88403" offset=".513" style="stop-color:#f6f6f6;stop-opacity:1"/><stop id="stop88405" offset=".64" style="stop-color:#ececec;stop-opacity:1"/><stop id="stop88407" offset=".757" style="stop-color:#dbdbdb;stop-opacity:1"/><stop id="stop88409" offset=".866" style="stop-color:#c4c4c4;stop-opacity:1"/><stop id="stop88411" offset=".969" style="stop-color:#a6a6a6;stop-opacity:1"/><stop id="stop88413" offset="1" style="stop-color:#9b9b9b;stop-opacity:1"/></linearGradient><radialGradient id="SVGID_1457_" cx="-574.644" cy="-106.061" r="139.112" gradientUnits="userSpaceOnUse"><stop id="stop88418" offset="0" style="stop-color:#f9f9f9;stop-opacity:1"/><stop id="stop88420" offset=".249" style="stop-color:#f6f6f6;stop-opacity:1"/><stop id="stop88422" offset=".445" style="stop-color:#ececec;stop-opacity:1"/><stop id="stop88424" offset=".624" style="stop-color:#dbdbdb;stop-opacity:1"/><stop id="stop88426" offset=".793" style="stop-color:#c4c4c4;stop-opacity:1"/><stop id="stop88428" offset=".952" style="stop-color:#a6a6a6;stop-opacity:1"/><stop id="stop88430" offset="1" style="stop-color:#9b9b9b;stop-opacity:1"/></radialGradient><radialGradient id="SVGID_1458_" cx="-568.901" cy="-126.162" r="105.319" gradientUnits="userSpaceOnUse"><stop id="stop88435" offset="0" style="stop-color:#f9f9f9;stop-opacity:1"/><stop id="stop88437" offset=".249" style="stop-color:#f6f6f6;stop-opacity:1"/><stop id="stop88439" offset=".445" style="stop-color:#ececec;stop-opacity:1"/><stop id="stop88441" offset=".624" style="stop-color:#dbdbdb;stop-opacity:1"/><stop id="stop88443" offset=".793" style="stop-color:#c4c4c4;stop-opacity:1"/><stop id="stop88445" offset=".952" style="stop-color:#a6a6a6;stop-opacity:1"/><stop id="stop88447" offset="1" style="stop-color:#9b9b9b;stop-opacity:1"/></radialGradient><radialGradient id="SVGID_1459_" cx="-571.454" cy="-91.873" r="179.035" gradientTransform="matrix(1,0,0,1.0119,0,-14.3208)" gradientUnits="userSpaceOnUse"><stop id="stop88452" offset="0" style="stop-color:#f9f9f9;stop-opacity:1"/><stop id="stop88454" offset=".249" style="stop-color:#f6f6f6;stop-opacity:1"/><stop id="stop88456" offset=".445" style="stop-color:#ececec;stop-opacity:1"/><stop id="stop88458" offset=".624" style="stop-color:#dbdbdb;stop-opacity:1"/><stop id="stop88460" offset=".793" style="stop-color:#c4c4c4;stop-opacity:1"/><stop id="stop88462" offset=".952" style="stop-color:#a6a6a6;stop-opacity:1"/><stop id="stop88464" offset="1" style="stop-color:#9b9b9b;stop-opacity:1"/></radialGradient><radialGradient id="SVGID_1460_" cx="-566.507" cy="-124.248" r="97.16" gradientUnits="userSpaceOnUse"><stop id="stop88469" offset="0" style="stop-color:#f9f9f9;stop-opacity:1"/><stop id="stop88471" offset=".249" style="stop-color:#f6f6f6;stop-opacity:1"/><stop id="stop88473" offset=".445" style="stop-color:#ececec;stop-opacity:1"/><stop id="stop88475" offset=".624" style="stop-color:#dbdbdb;stop-opacity:1"/><stop id="stop88477" offset=".793" style="stop-color:#c4c4c4;stop-opacity:1"/><stop id="stop88479" offset=".952" style="stop-color:#a6a6a6;stop-opacity:1"/><stop id="stop88481" offset="1" style="stop-color:#9b9b9b;stop-opacity:1"/></radialGradient><radialGradient id="SVGID_1461_" cx="-571.294" cy="-49.586" r="103.917" gradientUnits="userSpaceOnUse"><stop id="stop88486" offset="0" style="stop-color:#f9f9f9;stop-opacity:1"/><stop id="stop88488" offset=".249" style="stop-color:#f6f6f6;stop-opacity:1"/><stop id="stop88490" offset=".445" style="stop-color:#ececec;stop-opacity:1"/><stop id="stop88492" offset=".624" style="stop-color:#dbdbdb;stop-opacity:1"/><stop id="stop88494" offset=".793" style="stop-color:#c4c4c4;stop-opacity:1"/><stop id="stop88496" offset=".952" style="stop-color:#a6a6a6;stop-opacity:1"/><stop id="stop88498" offset="1" style="stop-color:#9b9b9b;stop-opacity:1"/></radialGradient><radialGradient id="SVGID_578_" cx="-498.395" cy="-433.658" r="212.915" gradientUnits="userSpaceOnUse"><stop id="stop66761" offset="0" style="stop-color:#fff;stop-opacity:1"/><stop id="stop66763" offset=".247" style="stop-color:#fee79f;stop-opacity:1"/><stop id="stop66765" offset=".461" style="stop-color:#f6bc4f;stop-opacity:1"/><stop id="stop66767" offset=".703" style="stop-color:#cb680f;stop-opacity:1"/><stop id="stop66769" offset="1" style="stop-color:#782c07;stop-opacity:1"/></radialGradient><radialGradient id="SVGID_579_" cx="-575.236" cy="-391.814" r="115.17" gradientUnits="userSpaceOnUse"><stop id="stop66774" offset="0" style="stop-color:#fff;stop-opacity:1"/><stop id="stop66776" offset=".247" style="stop-color:#fee79f;stop-opacity:1"/><stop id="stop66778" offset=".461" style="stop-color:#f6bc4f;stop-opacity:1"/><stop id="stop66780" offset=".703" style="stop-color:#cb680f;stop-opacity:1"/><stop id="stop66782" offset="1" style="stop-color:#782c07;stop-opacity:1"/></radialGradient><radialGradient id="SVGID_580_" cx="-574.71" cy="-353.046" r="101.997" gradientTransform="matrix(0.9895,0,0,0.9941,-2.1759,0.4072)" gradientUnits="userSpaceOnUse"><stop id="stop66787" offset="0" style="stop-color:#fff;stop-opacity:1"/><stop id="stop66789" offset=".247" style="stop-color:#fee79f;stop-opacity:1"/><stop id="stop66791" offset=".461" style="stop-color:#f6bc4f;stop-opacity:1"/><stop id="stop66793" offset=".703" style="stop-color:#cb680f;stop-opacity:1"/><stop id="stop66795" offset="1" style="stop-color:#782c07;stop-opacity:1"/></radialGradient><radialGradient id="SVGID_581_" cx="-571.718" cy="-387.555" r="139.149" gradientUnits="userSpaceOnUse"><stop id="stop66800" offset="0" style="stop-color:#fff;stop-opacity:1"/><stop id="stop66802" offset=".247" style="stop-color:#fee79f;stop-opacity:1"/><stop id="stop66804" offset=".461" style="stop-color:#f6bc4f;stop-opacity:1"/><stop id="stop66806" offset=".703" style="stop-color:#cb680f;stop-opacity:1"/><stop id="stop66808" offset="1" style="stop-color:#782c07;stop-opacity:1"/></radialGradient><radialGradient id="SVGID_582_" cx="-618.934" cy="-410.328" r="208.73" gradientUnits="userSpaceOnUse"><stop id="stop66813" offset="0" style="stop-color:#fff;stop-opacity:1"/><stop id="stop66815" offset=".247" style="stop-color:#fee79f;stop-opacity:1"/><stop id="stop66817" offset=".461" style="stop-color:#f6bc4f;stop-opacity:1"/><stop id="stop66819" offset=".703" style="stop-color:#cb680f;stop-opacity:1"/><stop id="stop66821" offset="1" style="stop-color:#782c07;stop-opacity:1"/></radialGradient><radialGradient id="SVGID_583_" cx="-571.718" cy="-387.555" r="139.151" gradientUnits="userSpaceOnUse"><stop id="stop66826" offset="0" style="stop-color:#fff;stop-opacity:1"/><stop id="stop66828" offset=".247" style="stop-color:#fee79f;stop-opacity:1"/><stop id="stop66830" offset=".461" style="stop-color:#f6bc4f;stop-opacity:1"/><stop id="stop66832" offset=".703" style="stop-color:#cb680f;stop-opacity:1"/><stop id="stop66834" offset="1" style="stop-color:#782c07;stop-opacity:1"/></radialGradient><radialGradient id="SVGID_584_" cx="-618.934" cy="-402.924" r="206.701" gradientUnits="userSpaceOnUse"><stop id="stop66839" offset="0" style="stop-color:#fff;stop-opacity:1"/><stop id="stop66841" offset=".247" style="stop-color:#fee79f;stop-opacity:1"/><stop id="stop66843" offset=".461" style="stop-color:#f6bc4f;stop-opacity:1"/><stop id="stop66845" offset=".703" style="stop-color:#cb680f;stop-opacity:1"/><stop id="stop66847" offset="1" style="stop-color:#782c07;stop-opacity:1"/></radialGradient><radialGradient id="SVGID_585_" cx="-541.444" cy="-360.615" r="78.485" gradientUnits="userSpaceOnUse"><stop id="stop66852" offset="0" style="stop-color:#fff;stop-opacity:1"/><stop id="stop66854" offset="1" style="stop-color:#040404;stop-opacity:1"/></radialGradient><radialGradient id="SVGID_586_" cx="-541.583" cy="-312.559" r="39.246" gradientUnits="userSpaceOnUse"><stop id="stop66859" offset="0" style="stop-color:#fff;stop-opacity:1"/><stop id="stop66861" offset="1" style="stop-color:#040404;stop-opacity:1"/></radialGradient><filter id="filter3853" width="1.5" height="1.5" x="-.25" y="-.25"><feGaussianBlur id="feGaussianBlur3855" in="SourceAlpha" result="blur" stdDeviation="1.2"/><feColorMatrix id="feColorMatrix3857" result="bluralpha" type="matrix" values="1 0 0 0 0 0 1 0 0 0 0 0 1 0 0 0 0 0 0.65 0"/><feOffset id="feOffset3859" dx="0" dy="2.3" in="bluralpha" result="offsetBlur"/><feMerge id="feMerge3861"><feMergeNode id="feMergeNode3863" in="offsetBlur"/><feMergeNode id="feMergeNode3865" in="SourceGraphic"/></feMerge></filter><filter id="filter3867" width="1.5" height="1.5" x="-.25" y="-.25"><feGaussianBlur id="feGaussianBlur3869" in="SourceAlpha" result="blur" stdDeviation="1.2"/><feColorMatrix id="feColorMatrix3871" result="bluralpha" type="matrix" values="1 0 0 0 0 0 1 0 0 0 0 0 1 0 0 0 0 0 0.65 0"/><feOffset id="feOffset3873" dx="0" dy="2.3" in="bluralpha" result="offsetBlur"/><feMerge id="feMerge3875"><feMergeNode id="feMergeNode3877" in="offsetBlur"/><feMergeNode id="feMergeNode3879" in="SourceGraphic"/></feMerge></filter></defs><metadata id="metadata104622"/><g id="layer1" transform="translate(38.153106,-595.52551)"><g id="g88381" transform="matrix(7.6094859,0,0,7.6094915,4561.2595,1253.7577)" style="filter:url(#filter3853)"><radialGradient id="radialGradient104498" cx="-571.293" cy="-142.436" r="120.618" gradientUnits="userSpaceOnUse"><stop id="stop104500" offset="0" style="stop-color:#f9f9f9;stop-opacity:1"/><stop id="stop104502" offset=".249" style="stop-color:#f6f6f6;stop-opacity:1"/><stop id="stop104504" offset=".445" style="stop-color:#ececec;stop-opacity:1"/><stop id="stop104506" offset=".624" style="stop-color:#dbdbdb;stop-opacity:1"/><stop id="stop104508" offset=".793" style="stop-color:#c4c4c4;stop-opacity:1"/><stop id="stop104510" offset=".952" style="stop-color:#a6a6a6;stop-opacity:1"/><stop id="stop104512" offset="1" style="stop-color:#9b9b9b;stop-opacity:1"/></radialGradient><path id="path88398" d="m -540.662,-38.563 c 0,5.013 -4.428,9.079 -9.889,9.079 h -40.05 c -5.461,0 -9.888,-4.066 -9.888,-9.079 v -25.874 c 0,-5.015 4.427,-9.079 9.888,-9.079 h 40.05 c 5.461,0 9.889,4.064 9.889,9.079 v 25.874 z" style="fill:url(#SVGID_1455_)"/><linearGradient id="linearGradient104515" x1="-570.576" x2="-570.576" y1="-71.283" y2="-35.547" gradientUnits="userSpaceOnUse"><stop id="stop104517" offset=".352" style="stop-color:#f9f9f9;stop-opacity:1"/><stop id="stop104519" offset=".513" style="stop-color:#f6f6f6;stop-opacity:1"/><stop id="stop104521" offset=".64" style="stop-color:#ececec;stop-opacity:1"/><stop id="stop104523" offset=".757" style="stop-color:#dbdbdb;stop-opacity:1"/><stop id="stop104525" offset=".866" style="stop-color:#c4c4c4;stop-opacity:1"/><stop id="stop104527" offset=".969" style="stop-color:#a6a6a6;stop-opacity:1"/><stop id="stop104529" offset="1" style="stop-color:#9b9b9b;stop-opacity:1"/></linearGradient><path id="path88415" d="M -550.551,-30.44 H -590.6 c -4.924,0 -8.932,-3.644 -8.932,-8.123 v -25.874 c 0,-4.478 4.008,-8.121 8.932,-8.121 h 40.049 c 4.923,0 8.931,3.644 8.931,8.121 v 25.874 c 0,4.479 -4.008,8.123 -8.931,8.123 l 0,0 z" style="fill:url(#SVGID_1456_)"/><radialGradient id="radialGradient104532" cx="-574.644" cy="-106.061" r="139.112" gradientUnits="userSpaceOnUse"><stop id="stop104534" offset="0" style="stop-color:#f9f9f9;stop-opacity:1"/><stop id="stop104536" offset=".249" style="stop-color:#f6f6f6;stop-opacity:1"/><stop id="stop104538" offset=".445" style="stop-color:#ececec;stop-opacity:1"/><stop id="stop104540" offset=".624" style="stop-color:#dbdbdb;stop-opacity:1"/><stop id="stop104542" offset=".793" style="stop-color:#c4c4c4;stop-opacity:1"/><stop id="stop104544" offset=".952" style="stop-color:#a6a6a6;stop-opacity:1"/><stop id="stop104546" offset="1" style="stop-color:#9b9b9b;stop-opacity:1"/></radialGradient><path id="path88432" d="M -550.551,-30.44 H -590.6 c -4.924,0 -8.932,-3.561 -8.932,-7.938 v -25.285 c 0,-4.377 4.008,-7.938 8.932,-7.938 h 40.049 c 4.923,0 8.931,3.562 8.931,7.938 v 25.285 c 0,4.377 -4.008,7.938 -8.931,7.938 l 0,0 z" style="fill:url(#SVGID_1457_)"/><radialGradient id="radialGradient104549" cx="-568.901" cy="-126.162" r="105.319" gradientUnits="userSpaceOnUse"><stop id="stop104551" offset="0" style="stop-color:#f9f9f9;stop-opacity:1"/><stop id="stop104553" offset=".249" style="stop-color:#f6f6f6;stop-opacity:1"/><stop id="stop104555" offset=".445" style="stop-color:#ececec;stop-opacity:1"/><stop id="stop104557" offset=".624" style="stop-color:#dbdbdb;stop-opacity:1"/><stop id="stop104559" offset=".793" style="stop-color:#c4c4c4;stop-opacity:1"/><stop id="stop104561" offset=".952" style="stop-color:#a6a6a6;stop-opacity:1"/><stop id="stop104563" offset="1" style="stop-color:#9b9b9b;stop-opacity:1"/></radialGradient><path id="path88449" d="m -599.531,-38.378 c 0,4.377 4.008,7.938 8.932,7.938 h 40.049 c 4.923,0 8.931,-3.561 8.931,-7.938 0,0 -0.327,-2.464 -1.196,-3.071 -0.869,-0.61 -27.042,-17.709 -27.042,-17.709 0,0 -26.034,16.129 -27.28,16.752 -2.394,1.196 -2.394,4.028 -2.394,4.028 z" style="fill:url(#SVGID_1458_)"/><radialGradient id="radialGradient104566" cx="-571.454" cy="-91.873" r="179.035" gradientTransform="matrix(1,0,0,1.0119,0,-14.3208)" gradientUnits="userSpaceOnUse"><stop id="stop104568" offset="0" style="stop-color:#f9f9f9;stop-opacity:1"/><stop id="stop104570" offset=".249" style="stop-color:#f6f6f6;stop-opacity:1"/><stop id="stop104572" offset=".445" style="stop-color:#ececec;stop-opacity:1"/><stop id="stop104574" offset=".624" style="stop-color:#dbdbdb;stop-opacity:1"/><stop id="stop104576" offset=".793" style="stop-color:#c4c4c4;stop-opacity:1"/><stop id="stop104578" offset=".952" style="stop-color:#a6a6a6;stop-opacity:1"/><stop id="stop104580" offset="1" style="stop-color:#9b9b9b;stop-opacity:1"/></radialGradient><path id="path88466" d="m -599.531,-38.153 c 0,4.429 4.008,8.031 8.932,8.031 h 40.049 c 4.923,0 8.931,-3.603 8.931,-8.031 0,0 -0.327,-1.687 -1.196,-2.302 -0.869,-0.617 -27.042,-16.789 -27.042,-16.789 0,0 -26.034,15.19 -27.28,15.821 -2.394,1.209 -2.394,3.27 -2.394,3.27 z" style="fill:url(#SVGID_1459_)"/><radialGradient id="radialGradient104583" cx="-566.507" cy="-124.248" r="97.16" gradientUnits="userSpaceOnUse"><stop id="stop104585" offset="0" style="stop-color:#f9f9f9;stop-opacity:1"/><stop id="stop104587" offset=".249" style="stop-color:#f6f6f6;stop-opacity:1"/><stop id="stop104589" offset=".445" style="stop-color:#ececec;stop-opacity:1"/><stop id="stop104591" offset=".624" style="stop-color:#dbdbdb;stop-opacity:1"/><stop id="stop104593" offset=".793" style="stop-color:#c4c4c4;stop-opacity:1"/><stop id="stop104595" offset=".952" style="stop-color:#a6a6a6;stop-opacity:1"/><stop id="stop104597" offset="1" style="stop-color:#9b9b9b;stop-opacity:1"/></radialGradient><path id="path88483" d="M -550.551,-71.602 H -590.6 c -4.924,0 -8.932,4.39 -8.932,7.938 0,3.548 25.605,14.795 28.956,14.795 3.35,0 28.955,-10.051 28.955,-14.795 10e-4,-3.391 -4.007,-7.938 -8.93,-7.938 z" style="fill:url(#SVGID_1460_)"/><radialGradient id="radialGradient104600" cx="-571.294" cy="-49.586" r="103.917" gradientUnits="userSpaceOnUse"><stop id="stop104602" offset="0" style="stop-color:#f9f9f9;stop-opacity:1"/><stop id="stop104604" offset=".249" style="stop-color:#f6f6f6;stop-opacity:1"/><stop id="stop104606" offset=".445" style="stop-color:#ececec;stop-opacity:1"/><stop id="stop104608" offset=".624" style="stop-color:#dbdbdb;stop-opacity:1"/><stop id="stop104610" offset=".793" style="stop-color:#c4c4c4;stop-opacity:1"/><stop id="stop104612" offset=".952" style="stop-color:#a6a6a6;stop-opacity:1"/><stop id="stop104614" offset="1" style="stop-color:#9b9b9b;stop-opacity:1"/></radialGradient><path id="path88500" d="M -550.551,-71.602 H -590.6 c -4.924,0 -8.932,3.631 -8.932,7.179 0,3.549 25.366,14.119 28.717,14.119 3.351,0 29.194,-9.374 29.194,-14.119 10e-4,-3.39 -4.007,-7.179 -8.93,-7.179 z" style="fill:url(#SVGID_1461_)"/></g><g id="g66758" transform="matrix(4.1653336,0,0,4.1653367,2596.5977,2039.2317)" style="filter:url(#filter3867)"><radialGradient id="radialGradient104929" cx="-498.395" cy="-433.658" r="212.915" gradientUnits="userSpaceOnUse"><stop id="stop104931" offset="0" style="stop-color:#fff;stop-opacity:1"/><stop id="stop104933" offset=".247" style="stop-color:#fee79f;stop-opacity:1"/><stop id="stop104935" offset=".461" style="stop-color:#f6bc4f;stop-opacity:1"/><stop id="stop104937" offset=".703" style="stop-color:#cb680f;stop-opacity:1"/><stop id="stop104939" offset="1" style="stop-color:#782c07;stop-opacity:1"/></radialGradient><path id="path66771" d="m -548.943,-292.27 h -42.587 c -2.783,0 -5.012,-1.066 -6.111,-2.924 -1.027,-1.736 -0.905,-3.943 0.342,-6.213 4.542,-8.256 11.985,-21.076 16.909,-29.561 2.808,-4.836 4.835,-8.33 5.184,-9.006 0.693,-1.346 2.758,-2.281 5.019,-2.281 2.062,0 3.817,0.803 4.817,2.205 1.47,2.059 12.443,22.07 21.389,38.496 1.367,2.508 1.537,4.865 0.483,6.641 -1.001,1.68 -2.983,2.643 -5.445,2.643 l 0,0 z" style="fill:url(#SVGID_578_)"/><radialGradient id="radialGradient104942" cx="-575.236" cy="-391.814" r="115.17" gradientUnits="userSpaceOnUse"><stop id="stop104944" offset="0" style="stop-color:#fff;stop-opacity:1"/><stop id="stop104946" offset=".247" style="stop-color:#fee79f;stop-opacity:1"/><stop id="stop104948" offset=".461" style="stop-color:#f6bc4f;stop-opacity:1"/><stop id="stop104950" offset=".703" style="stop-color:#cb680f;stop-opacity:1"/><stop id="stop104952" offset="1" style="stop-color:#782c07;stop-opacity:1"/></radialGradient><path id="path66784" d="m -565.915,-339.661 c 1.56,2.186 14.361,25.598 21.348,38.426 2.686,4.93 0.066,8.297 -4.377,8.297 -4.443,0 -37.771,0 -42.586,0 -4.814,0 -7.752,-3.477 -5.185,-8.146 7.088,-12.889 21.109,-36.662 22.101,-38.584 1.061,-2.059 6.541,-3.02 8.699,0.007 z" style="fill:url(#SVGID_579_)"/><radialGradient id="radialGradient104955" cx="-574.71" cy="-353.046" r="101.997" gradientTransform="matrix(0.9895,0,0,0.9941,-2.1759,0.4072)" gradientUnits="userSpaceOnUse"><stop id="stop104957" offset="0" style="stop-color:#fff;stop-opacity:1"/><stop id="stop104959" offset=".247" style="stop-color:#fee79f;stop-opacity:1"/><stop id="stop104961" offset=".461" style="stop-color:#f6bc4f;stop-opacity:1"/><stop id="stop104963" offset=".703" style="stop-color:#cb680f;stop-opacity:1"/><stop id="stop104965" offset="1" style="stop-color:#782c07;stop-opacity:1"/></radialGradient><path id="path66797" d="m -549.448,-293.606 h -42.138 c -2.243,0 -4.081,-0.842 -4.913,-2.254 -0.77,-1.307 -0.642,-3.033 0.358,-4.861 4.487,-8.197 11.848,-20.936 16.717,-29.361 2.786,-4.824 4.801,-8.311 5.161,-9.012 0.445,-0.869 2.111,-1.551 3.791,-1.551 1.608,0 2.952,0.596 3.692,1.639 1.105,1.555 8.591,15.098 21.083,38.133 1.119,2.066 1.295,3.943 0.5,5.291 -0.742,1.259 -2.29,1.976 -4.251,1.976 l 0,0 z" style="fill:url(#SVGID_580_)"/><radialGradient id="radialGradient104968" cx="-571.718" cy="-387.555" r="139.149" gradientUnits="userSpaceOnUse"><stop id="stop104970" offset="0" style="stop-color:#fff;stop-opacity:1"/><stop id="stop104972" offset=".247" style="stop-color:#fee79f;stop-opacity:1"/><stop id="stop104974" offset=".461" style="stop-color:#f6bc4f;stop-opacity:1"/><stop id="stop104976" offset=".703" style="stop-color:#cb680f;stop-opacity:1"/><stop id="stop104978" offset="1" style="stop-color:#782c07;stop-opacity:1"/></radialGradient><path id="path66810" d="m -548.944,-294.495 h -42.586 c -1.95,0 -3.521,-0.684 -4.199,-1.832 -0.609,-1.031 -0.479,-2.457 0.377,-4.01 4.574,-8.314 12.28,-21.586 16.885,-29.516 l 0.271,-0.471 c 2.771,-4.775 4.603,-7.93 4.966,-8.633 0.233,-0.449 1.501,-1.078 3.041,-1.078 1.333,0 2.429,0.465 3.01,1.277 0.632,0.885 4.232,7.031 21.247,38.264 0.975,1.793 1.161,3.369 0.521,4.443 -0.584,0.99 -1.873,1.556 -3.533,1.556 l 0,0 z" style="fill:url(#SVGID_581_)"/><radialGradient id="radialGradient104981" cx="-618.934" cy="-410.328" r="208.73" gradientUnits="userSpaceOnUse"><stop id="stop104983" offset="0" style="stop-color:#fff;stop-opacity:1"/><stop id="stop104985" offset=".247" style="stop-color:#fee79f;stop-opacity:1"/><stop id="stop104987" offset=".461" style="stop-color:#f6bc4f;stop-opacity:1"/><stop id="stop104989" offset=".703" style="stop-color:#cb680f;stop-opacity:1"/><stop id="stop104991" offset="1" style="stop-color:#782c07;stop-opacity:1"/></radialGradient><path id="path66823" d="m -553.999,-315.254 c -7.943,6.068 -19.65,9.912 -32.717,9.912 -1.935,0 -3.834,-0.094 -5.702,-0.256 -1.064,1.887 -2.059,3.666 -2.936,5.262 -0.855,1.553 -0.986,2.979 -0.377,4.01 0.678,1.148 2.249,1.832 4.199,1.832 h 42.586 c 1.66,0 2.949,-0.566 3.532,-1.555 0.641,-1.074 0.454,-2.65 -0.521,-4.443 -3.118,-5.727 -5.783,-10.6 -8.064,-14.762 z" style="fill:url(#SVGID_582_)"/><radialGradient id="radialGradient104994" cx="-571.718" cy="-387.555" r="139.151" gradientUnits="userSpaceOnUse"><stop id="stop104996" offset="0" style="stop-color:#fff;stop-opacity:1"/><stop id="stop104998" offset=".247" style="stop-color:#fee79f;stop-opacity:1"/><stop id="stop105000" offset=".461" style="stop-color:#f6bc4f;stop-opacity:1"/><stop id="stop105002" offset=".703" style="stop-color:#cb680f;stop-opacity:1"/><stop id="stop105004" offset="1" style="stop-color:#782c07;stop-opacity:1"/></radialGradient><path id="path66836" d="m -553.999,-315.254 c -10.164,-18.541 -12.664,-22.779 -13.181,-23.502 -0.581,-0.813 -1.677,-1.277 -3.01,-1.277 -1.54,0 -2.808,0.629 -3.041,1.078 -0.363,0.703 -2.194,3.857 -4.966,8.633 l -0.271,0.471 c -3.722,6.41 -9.467,16.305 -13.95,24.254 1.867,0.162 3.767,0.256 5.702,0.256 13.067,-10e-4 24.774,-3.845 32.717,-9.913 z" style="fill:url(#SVGID_583_)"/><radialGradient id="radialGradient105007" cx="-618.934" cy="-402.924" r="206.701" gradientUnits="userSpaceOnUse"><stop id="stop105009" offset="0" style="stop-color:#fff;stop-opacity:1"/><stop id="stop105011" offset=".247" style="stop-color:#fee79f;stop-opacity:1"/><stop id="stop105013" offset=".461" style="stop-color:#f6bc4f;stop-opacity:1"/><stop id="stop105015" offset=".703" style="stop-color:#cb680f;stop-opacity:1"/><stop id="stop105017" offset="1" style="stop-color:#782c07;stop-opacity:1"/></radialGradient><path id="path66849" d="m -553.999,-315.254 c -10.164,-18.541 -12.664,-22.779 -13.181,-23.502 -0.581,-0.813 -1.677,-1.277 -3.01,-1.277 -1.54,0 -2.808,0.629 -3.041,1.078 -0.363,0.703 -2.194,3.857 -4.966,8.633 l -0.271,0.471 c -3.722,6.41 -9.467,16.305 -13.95,24.254 1.867,0.162 3.767,0.256 5.702,0.256 13.067,-10e-4 24.774,-3.845 32.717,-9.913 z" style="fill:url(#SVGID_584_)"/><radialGradient id="radialGradient105020" cx="-541.444" cy="-360.615" r="78.485" gradientUnits="userSpaceOnUse"><stop id="stop105022" offset="0" style="stop-color:#fff;stop-opacity:1"/><stop id="stop105024" offset="1" style="stop-color:#040404;stop-opacity:1"/></radialGradient><path id="path66856" d="m -567.552,-310.481 c 0,1.533 -1.243,2.777 -2.777,2.777 l 0,0 c -1.534,0 -2.777,-1.244 -2.777,-2.777 v -15.832 c 0,-1.533 1.243,-2.777 2.777,-2.777 l 0,0 c 1.534,0 2.777,1.244 2.777,2.777 v 15.832 z" style="fill:url(#SVGID_585_)"/><radialGradient id="radialGradient105027" cx="-541.583" cy="-312.559" r="39.246" gradientUnits="userSpaceOnUse"><stop id="stop105029" offset="0" style="stop-color:#fff;stop-opacity:1"/><stop id="stop105031" offset="1" style="stop-color:#040404;stop-opacity:1"/></radialGradient><circle id="circle66863" cx="-570.468" cy="-301.594" r="2.777" d="m -567.69102,-301.59399 c 0,1.53369 -1.2433,2.777 -2.777,2.777 -1.53369,0 -2.777,-1.24331 -2.777,-2.777 0,-1.5337 1.24331,-2.777 2.777,-2.777 1.5337,0 2.777,1.2433 2.777,2.777 z" style="fill:url(#SVGID_586_)"/></g></g></svg>